<mxfile host="www.draw.io" modified="2019-11-05T22:33:40.350Z" agent="Mozilla/5.0 (Windows NT 10.0; Win64; x64) AppleWebKit/537.36 (KHTML, like Gecko) Chrome/77.0.3865.120 Safari/537.36" etag="B19-sBAtn_sjaaueesee" version="12.2.0" type="github" pages="1">
  <diagram name="Page-1" id="2a216829-ef6e-dabb-86c1-c78162f3ba2b">
    <mxGraphModel dx="971" dy="1604" grid="1" gridSize="10" guides="1" tooltips="1" connect="1" arrows="1" fold="1" page="1" pageScale="1" pageWidth="850" pageHeight="1100" background="#ffffff" math="0" shadow="0">
      <root>
        <mxCell id="0"/>
        <mxCell id="1" parent="0"/>
        <mxCell id="k1dP0LPrzY52dlOJO-ra-1" value="" style="endArrow=none;html=1;" parent="1" edge="1">
          <mxGeometry width="50" height="50" relative="1" as="geometry">
            <mxPoint x="80" y="800" as="sourcePoint"/>
            <mxPoint x="80" y="40" as="targetPoint"/>
          </mxGeometry>
        </mxCell>
        <mxCell id="k1dP0LPrzY52dlOJO-ra-2" value="" style="endArrow=none;html=1;" parent="1" edge="1">
          <mxGeometry width="50" height="50" relative="1" as="geometry">
            <mxPoint x="80" y="800" as="sourcePoint"/>
            <mxPoint x="600" y="800" as="targetPoint"/>
          </mxGeometry>
        </mxCell>
        <mxCell id="k1dP0LPrzY52dlOJO-ra-4" value="" style="endArrow=none;html=1;" parent="1" edge="1">
          <mxGeometry width="50" height="50" relative="1" as="geometry">
            <mxPoint x="600" y="800" as="sourcePoint"/>
            <mxPoint x="600" y="40" as="targetPoint"/>
          </mxGeometry>
        </mxCell>
        <mxCell id="k1dP0LPrzY52dlOJO-ra-5" value="6" style="text;html=1;resizable=0;points=[];autosize=1;align=left;verticalAlign=top;spacingTop=-4;" parent="1" vertex="1">
          <mxGeometry x="320" y="20" width="20" height="20" as="geometry"/>
        </mxCell>
        <mxCell id="k1dP0LPrzY52dlOJO-ra-6" value="&lt;h1 style=&quot;line-height: 80%&quot;&gt;&amp;nbsp; &amp;nbsp; &amp;nbsp; TT&lt;/h1&gt;&lt;div&gt;&lt;br&gt;&lt;/div&gt;&lt;div&gt;&lt;br&gt;&lt;/div&gt;&lt;div&gt;&lt;br&gt;&lt;/div&gt;&lt;div&gt;&lt;br&gt;&lt;/div&gt;&lt;div&gt;&lt;br&gt;&lt;/div&gt;&lt;div&gt;&amp;nbsp;&lt;/div&gt;&lt;div&gt;&lt;br&gt;&lt;/div&gt;&lt;h1&gt;&amp;nbsp; &amp;nbsp; &amp;nbsp; 3&lt;/h1&gt;&lt;div&gt;&lt;br&gt;&lt;/div&gt;" style="rounded=0;whiteSpace=wrap;html=1;" parent="1" vertex="1">
          <mxGeometry x="165" y="40" width="115" height="200" as="geometry"/>
        </mxCell>
        <mxCell id="k1dP0LPrzY52dlOJO-ra-7" value="&lt;h1&gt;R&lt;/h1&gt;" style="rounded=0;whiteSpace=wrap;html=1;" parent="1" vertex="1">
          <mxGeometry x="165" y="40" width="40" height="40" as="geometry"/>
        </mxCell>
        <mxCell id="k1dP0LPrzY52dlOJO-ra-8" value="&lt;h1&gt;J&lt;/h1&gt;" style="rounded=0;whiteSpace=wrap;html=1;" parent="1" vertex="1">
          <mxGeometry x="165" y="80" width="40" height="40" as="geometry"/>
        </mxCell>
        <mxCell id="k1dP0LPrzY52dlOJO-ra-9" value="&lt;h1&gt;C&lt;/h1&gt;" style="rounded=0;whiteSpace=wrap;html=1;" parent="1" vertex="1">
          <mxGeometry x="165" y="120" width="40" height="40" as="geometry"/>
        </mxCell>
        <mxCell id="k1dP0LPrzY52dlOJO-ra-10" value="&lt;h1&gt;K&lt;/h1&gt;" style="rounded=0;whiteSpace=wrap;html=1;" parent="1" vertex="1">
          <mxGeometry x="165" y="160" width="40" height="40" as="geometry"/>
        </mxCell>
        <mxCell id="k1dP0LPrzY52dlOJO-ra-11" value="&lt;h1&gt;S&lt;/h1&gt;" style="rounded=0;whiteSpace=wrap;html=1;" parent="1" vertex="1">
          <mxGeometry x="165" y="200" width="40" height="40" as="geometry"/>
        </mxCell>
        <mxCell id="k1dP0LPrzY52dlOJO-ra-12" value="" style="endArrow=none;html=1;entryX=0;entryY=0.5;entryDx=0;entryDy=0;" parent="1" target="k1dP0LPrzY52dlOJO-ra-8" edge="1" source="WL3TQ0erAcFO7EWSoYhy-1">
          <mxGeometry width="50" height="50" relative="1" as="geometry">
            <mxPoint x="80" y="100" as="sourcePoint"/>
            <mxPoint x="120" y="100" as="targetPoint"/>
            <Array as="points">
              <mxPoint x="120" y="100"/>
            </Array>
          </mxGeometry>
        </mxCell>
        <mxCell id="k1dP0LPrzY52dlOJO-ra-13" value="" style="shape=mxgraph.bpmn.shape;html=1;verticalLabelPosition=bottom;labelBackgroundColor=#ffffff;verticalAlign=top;align=center;perimeter=ellipsePerimeter;outlineConnect=0;outline=end;symbol=terminate;" parent="1" vertex="1">
          <mxGeometry x="160" y="55" width="10" height="10" as="geometry"/>
        </mxCell>
        <mxCell id="k1dP0LPrzY52dlOJO-ra-14" value="" style="shape=mxgraph.bpmn.shape;html=1;verticalLabelPosition=bottom;labelBackgroundColor=#ffffff;verticalAlign=top;align=center;perimeter=ellipsePerimeter;outlineConnect=0;outline=end;symbol=terminate;" parent="1" vertex="1">
          <mxGeometry x="160" y="215" width="10" height="10" as="geometry"/>
        </mxCell>
        <mxCell id="k1dP0LPrzY52dlOJO-ra-16" value="" style="endArrow=none;html=1;" parent="1" edge="1">
          <mxGeometry width="50" height="50" relative="1" as="geometry">
            <mxPoint x="120" y="180" as="sourcePoint"/>
            <mxPoint x="120" y="100" as="targetPoint"/>
          </mxGeometry>
        </mxCell>
        <mxCell id="k1dP0LPrzY52dlOJO-ra-17" value="" style="endArrow=none;html=1;entryX=0;entryY=0.5;entryDx=0;entryDy=0;" parent="1" target="k1dP0LPrzY52dlOJO-ra-10" edge="1">
          <mxGeometry width="50" height="50" relative="1" as="geometry">
            <mxPoint x="120" y="180" as="sourcePoint"/>
            <mxPoint x="120" y="100" as="targetPoint"/>
          </mxGeometry>
        </mxCell>
        <mxCell id="k1dP0LPrzY52dlOJO-ra-18" value="" style="endArrow=none;html=1;entryX=0;entryY=0.5;entryDx=0;entryDy=0;" parent="1" edge="1">
          <mxGeometry width="50" height="50" relative="1" as="geometry">
            <mxPoint x="120" y="220" as="sourcePoint"/>
            <mxPoint x="165" y="220" as="targetPoint"/>
          </mxGeometry>
        </mxCell>
        <mxCell id="k1dP0LPrzY52dlOJO-ra-19" value="&quot;1&quot;" style="text;html=1;resizable=0;points=[];autosize=1;align=left;verticalAlign=top;spacingTop=-4;" parent="1" vertex="1">
          <mxGeometry x="125" y="200" width="30" height="20" as="geometry"/>
        </mxCell>
        <mxCell id="k1dP0LPrzY52dlOJO-ra-20" value="" style="endArrow=none;html=1;entryX=0;entryY=0.5;entryDx=0;entryDy=0;" parent="1" edge="1">
          <mxGeometry width="50" height="50" relative="1" as="geometry">
            <mxPoint x="120" y="60" as="sourcePoint"/>
            <mxPoint x="165" y="60" as="targetPoint"/>
          </mxGeometry>
        </mxCell>
        <mxCell id="k1dP0LPrzY52dlOJO-ra-21" value="&quot;1&quot;" style="text;html=1;resizable=0;points=[];autosize=1;align=left;verticalAlign=top;spacingTop=-4;" parent="1" vertex="1">
          <mxGeometry x="125" y="40" width="30" height="20" as="geometry"/>
        </mxCell>
        <mxCell id="k1dP0LPrzY52dlOJO-ra-22" value="&quot;1&quot;" style="text;html=1;resizable=0;points=[];autosize=1;align=left;verticalAlign=top;spacingTop=-4;" parent="1" vertex="1">
          <mxGeometry x="85" y="80" width="30" height="20" as="geometry"/>
        </mxCell>
        <mxCell id="k1dP0LPrzY52dlOJO-ra-23" value="" style="endArrow=none;html=1;" parent="1" edge="1">
          <mxGeometry width="50" height="50" relative="1" as="geometry">
            <mxPoint x="40" y="80" as="sourcePoint"/>
            <mxPoint x="80" y="80" as="targetPoint"/>
          </mxGeometry>
        </mxCell>
        <mxCell id="k1dP0LPrzY52dlOJO-ra-24" value="" style="endArrow=none;html=1;" parent="1" edge="1">
          <mxGeometry width="50" height="50" relative="1" as="geometry">
            <mxPoint x="40" y="100" as="sourcePoint"/>
            <mxPoint x="80" y="100" as="targetPoint"/>
          </mxGeometry>
        </mxCell>
        <mxCell id="k1dP0LPrzY52dlOJO-ra-25" value="" style="endArrow=none;html=1;" parent="1" edge="1">
          <mxGeometry width="50" height="50" relative="1" as="geometry">
            <mxPoint x="40" y="120" as="sourcePoint"/>
            <mxPoint x="80" y="120" as="targetPoint"/>
          </mxGeometry>
        </mxCell>
        <mxCell id="k1dP0LPrzY52dlOJO-ra-26" value="" style="endArrow=none;html=1;" parent="1" edge="1">
          <mxGeometry width="50" height="50" relative="1" as="geometry">
            <mxPoint x="40" y="140" as="sourcePoint"/>
            <mxPoint x="80" y="140" as="targetPoint"/>
          </mxGeometry>
        </mxCell>
        <mxCell id="k1dP0LPrzY52dlOJO-ra-27" value="" style="endArrow=none;html=1;" parent="1" edge="1">
          <mxGeometry width="50" height="50" relative="1" as="geometry">
            <mxPoint x="40" y="160" as="sourcePoint"/>
            <mxPoint x="80" y="160" as="targetPoint"/>
          </mxGeometry>
        </mxCell>
        <mxCell id="k1dP0LPrzY52dlOJO-ra-28" value="" style="endArrow=none;html=1;" parent="1" edge="1">
          <mxGeometry width="50" height="50" relative="1" as="geometry">
            <mxPoint x="40" y="179.99999999999997" as="sourcePoint"/>
            <mxPoint x="80" y="179.99999999999997" as="targetPoint"/>
          </mxGeometry>
        </mxCell>
        <mxCell id="k1dP0LPrzY52dlOJO-ra-29" value="1(c)" style="text;html=1;resizable=0;points=[];autosize=1;align=left;verticalAlign=top;spacingTop=-4;" parent="1" vertex="1">
          <mxGeometry x="40" y="60" width="40" height="20" as="geometry"/>
        </mxCell>
        <mxCell id="k1dP0LPrzY52dlOJO-ra-30" value="2(-)" style="text;html=1;resizable=0;points=[];autosize=1;align=left;verticalAlign=top;spacingTop=-4;" parent="1" vertex="1">
          <mxGeometry x="40" y="80" width="30" height="20" as="geometry"/>
        </mxCell>
        <mxCell id="k1dP0LPrzY52dlOJO-ra-31" value="3(-)" style="text;html=1;resizable=0;points=[];autosize=1;align=left;verticalAlign=top;spacingTop=-4;" parent="1" vertex="1">
          <mxGeometry x="40" y="100" width="30" height="20" as="geometry"/>
        </mxCell>
        <mxCell id="k1dP0LPrzY52dlOJO-ra-32" value="7(-)" style="text;html=1;resizable=0;points=[];autosize=1;align=left;verticalAlign=top;spacingTop=-4;" parent="1" vertex="1">
          <mxGeometry x="40" y="120" width="30" height="20" as="geometry"/>
        </mxCell>
        <mxCell id="k1dP0LPrzY52dlOJO-ra-33" value="8(-)" style="text;html=1;resizable=0;points=[];autosize=1;align=left;verticalAlign=top;spacingTop=-4;" parent="1" vertex="1">
          <mxGeometry x="40" y="140" width="30" height="20" as="geometry"/>
        </mxCell>
        <mxCell id="k1dP0LPrzY52dlOJO-ra-35" value="9(-)" style="text;html=1;resizable=0;points=[];autosize=1;align=left;verticalAlign=top;spacingTop=-4;" parent="1" vertex="1">
          <mxGeometry x="40" y="160" width="30" height="20" as="geometry"/>
        </mxCell>
        <mxCell id="k1dP0LPrzY52dlOJO-ra-36" value="" style="endArrow=none;html=1;" parent="1" edge="1">
          <mxGeometry width="50" height="50" relative="1" as="geometry">
            <mxPoint x="600" y="80" as="sourcePoint"/>
            <mxPoint x="640" y="80" as="targetPoint"/>
          </mxGeometry>
        </mxCell>
        <mxCell id="k1dP0LPrzY52dlOJO-ra-37" value="" style="endArrow=none;html=1;" parent="1" edge="1">
          <mxGeometry width="50" height="50" relative="1" as="geometry">
            <mxPoint x="600" y="100" as="sourcePoint"/>
            <mxPoint x="640" y="100" as="targetPoint"/>
          </mxGeometry>
        </mxCell>
        <mxCell id="k1dP0LPrzY52dlOJO-ra-38" value="" style="endArrow=none;html=1;" parent="1" edge="1">
          <mxGeometry width="50" height="50" relative="1" as="geometry">
            <mxPoint x="600" y="120" as="sourcePoint"/>
            <mxPoint x="640" y="120" as="targetPoint"/>
          </mxGeometry>
        </mxCell>
        <mxCell id="k1dP0LPrzY52dlOJO-ra-39" value="" style="endArrow=none;html=1;" parent="1" edge="1">
          <mxGeometry width="50" height="50" relative="1" as="geometry">
            <mxPoint x="600" y="140" as="sourcePoint"/>
            <mxPoint x="640" y="140" as="targetPoint"/>
          </mxGeometry>
        </mxCell>
        <mxCell id="k1dP0LPrzY52dlOJO-ra-40" value="" style="endArrow=none;html=1;" parent="1" edge="1">
          <mxGeometry width="50" height="50" relative="1" as="geometry">
            <mxPoint x="600" y="160" as="sourcePoint"/>
            <mxPoint x="640" y="160" as="targetPoint"/>
          </mxGeometry>
        </mxCell>
        <mxCell id="k1dP0LPrzY52dlOJO-ra-41" value="" style="endArrow=none;html=1;" parent="1" edge="1">
          <mxGeometry width="50" height="50" relative="1" as="geometry">
            <mxPoint x="600" y="180" as="sourcePoint"/>
            <mxPoint x="640" y="180" as="targetPoint"/>
          </mxGeometry>
        </mxCell>
        <mxCell id="k1dP0LPrzY52dlOJO-ra-42" value="4(-)" style="text;html=1;resizable=0;points=[];autosize=1;align=left;verticalAlign=top;spacingTop=-4;" parent="1" vertex="1">
          <mxGeometry x="600" y="60" width="30" height="20" as="geometry"/>
        </mxCell>
        <mxCell id="k1dP0LPrzY52dlOJO-ra-43" value="5(-)" style="text;html=1;resizable=0;points=[];autosize=1;align=left;verticalAlign=top;spacingTop=-4;" parent="1" vertex="1">
          <mxGeometry x="600" y="80" width="30" height="20" as="geometry"/>
        </mxCell>
        <mxCell id="k1dP0LPrzY52dlOJO-ra-44" value="6(-)" style="text;html=1;resizable=0;points=[];autosize=1;align=left;verticalAlign=top;spacingTop=-4;" parent="1" vertex="1">
          <mxGeometry x="600" y="100" width="30" height="20" as="geometry"/>
        </mxCell>
        <mxCell id="k1dP0LPrzY52dlOJO-ra-45" value="10" style="text;html=1;resizable=0;points=[];autosize=1;align=left;verticalAlign=top;spacingTop=-4;" parent="1" vertex="1">
          <mxGeometry x="600" y="120" width="30" height="20" as="geometry"/>
        </mxCell>
        <mxCell id="k1dP0LPrzY52dlOJO-ra-46" value="11" style="text;html=1;resizable=0;points=[];autosize=1;align=left;verticalAlign=top;spacingTop=-4;" parent="1" vertex="1">
          <mxGeometry x="600" y="140" width="30" height="20" as="geometry"/>
        </mxCell>
        <mxCell id="k1dP0LPrzY52dlOJO-ra-47" value="12" style="text;html=1;resizable=0;points=[];autosize=1;align=left;verticalAlign=top;spacingTop=-4;" parent="1" vertex="1">
          <mxGeometry x="600" y="160" width="30" height="20" as="geometry"/>
        </mxCell>
        <mxCell id="WL3TQ0erAcFO7EWSoYhy-1" value="" style="ellipse;html=1;shape=endState;fillColor=#000000;strokeColor=#ff0000;" vertex="1" parent="1">
          <mxGeometry x="115" y="95" width="10" height="10" as="geometry"/>
        </mxCell>
        <mxCell id="WL3TQ0erAcFO7EWSoYhy-2" value="" style="endArrow=none;html=1;entryX=0;entryY=0.5;entryDx=0;entryDy=0;" edge="1" parent="1" target="WL3TQ0erAcFO7EWSoYhy-1">
          <mxGeometry width="50" height="50" relative="1" as="geometry">
            <mxPoint x="79.99999999999997" y="100" as="sourcePoint"/>
            <mxPoint x="165" y="100" as="targetPoint"/>
            <Array as="points"/>
          </mxGeometry>
        </mxCell>
        <mxCell id="WL3TQ0erAcFO7EWSoYhy-3" value="" style="endArrow=none;html=1;entryX=0.002;entryY=0.558;entryDx=0;entryDy=0;entryPerimeter=0;" edge="1" parent="1" target="k1dP0LPrzY52dlOJO-ra-9">
          <mxGeometry width="50" height="50" relative="1" as="geometry">
            <mxPoint x="80" y="142" as="sourcePoint"/>
            <mxPoint x="150" y="110" as="targetPoint"/>
          </mxGeometry>
        </mxCell>
        <mxCell id="WL3TQ0erAcFO7EWSoYhy-4" value="c" style="text;html=1;resizable=0;points=[];autosize=1;align=left;verticalAlign=top;spacingTop=-4;" vertex="1" parent="1">
          <mxGeometry x="85" y="120" width="20" height="20" as="geometry"/>
        </mxCell>
        <mxCell id="WL3TQ0erAcFO7EWSoYhy-6" value="" style="endArrow=none;html=1;exitX=1.001;exitY=0.401;exitDx=0;exitDy=0;exitPerimeter=0;" edge="1" parent="1" source="k1dP0LPrzY52dlOJO-ra-6">
          <mxGeometry width="50" height="50" relative="1" as="geometry">
            <mxPoint x="280" y="160" as="sourcePoint"/>
            <mxPoint x="320" y="120" as="targetPoint"/>
          </mxGeometry>
        </mxCell>
        <mxCell id="WL3TQ0erAcFO7EWSoYhy-7" value="2" style="text;html=1;resizable=0;points=[];autosize=1;align=left;verticalAlign=top;spacingTop=-4;" vertex="1" parent="1">
          <mxGeometry x="280" y="100" width="20" height="20" as="geometry"/>
        </mxCell>
        <mxCell id="WL3TQ0erAcFO7EWSoYhy-8" value="" style="endArrow=none;html=1;" edge="1" parent="1">
          <mxGeometry width="50" height="50" relative="1" as="geometry">
            <mxPoint x="320" y="800" as="sourcePoint"/>
            <mxPoint x="320" y="40" as="targetPoint"/>
          </mxGeometry>
        </mxCell>
        <mxCell id="WL3TQ0erAcFO7EWSoYhy-9" value="&lt;h1 style=&quot;line-height: 80%&quot;&gt;&amp;nbsp; &amp;nbsp; &amp;nbsp; TT&lt;/h1&gt;&lt;div&gt;&lt;br&gt;&lt;/div&gt;&lt;div&gt;&lt;br&gt;&lt;/div&gt;&lt;div&gt;&lt;br&gt;&lt;/div&gt;&lt;div&gt;&lt;br&gt;&lt;/div&gt;&lt;div&gt;&lt;br&gt;&lt;/div&gt;&lt;div&gt;&lt;br&gt;&lt;/div&gt;&lt;div&gt;&lt;br&gt;&lt;/div&gt;&lt;h1&gt;&amp;nbsp; &amp;nbsp; &amp;nbsp; 2&lt;/h1&gt;&lt;div&gt;&lt;br&gt;&lt;/div&gt;" style="rounded=0;whiteSpace=wrap;html=1;" vertex="1" parent="1">
          <mxGeometry x="165" y="280" width="115" height="200" as="geometry"/>
        </mxCell>
        <mxCell id="WL3TQ0erAcFO7EWSoYhy-10" value="&lt;h1&gt;R&lt;/h1&gt;" style="rounded=0;whiteSpace=wrap;html=1;" vertex="1" parent="1">
          <mxGeometry x="165" y="280" width="40" height="40" as="geometry"/>
        </mxCell>
        <mxCell id="WL3TQ0erAcFO7EWSoYhy-11" value="&lt;h1&gt;J&lt;/h1&gt;" style="rounded=0;whiteSpace=wrap;html=1;" vertex="1" parent="1">
          <mxGeometry x="165" y="320" width="40" height="40" as="geometry"/>
        </mxCell>
        <mxCell id="WL3TQ0erAcFO7EWSoYhy-12" value="&lt;h1&gt;C&lt;/h1&gt;" style="rounded=0;whiteSpace=wrap;html=1;" vertex="1" parent="1">
          <mxGeometry x="165" y="360" width="40" height="40" as="geometry"/>
        </mxCell>
        <mxCell id="WL3TQ0erAcFO7EWSoYhy-13" value="&lt;h1&gt;K&lt;/h1&gt;" style="rounded=0;whiteSpace=wrap;html=1;" vertex="1" parent="1">
          <mxGeometry x="165" y="400" width="40" height="40" as="geometry"/>
        </mxCell>
        <mxCell id="WL3TQ0erAcFO7EWSoYhy-14" value="&lt;h1&gt;S&lt;/h1&gt;" style="rounded=0;whiteSpace=wrap;html=1;" vertex="1" parent="1">
          <mxGeometry x="165" y="440" width="40" height="40" as="geometry"/>
        </mxCell>
        <mxCell id="WL3TQ0erAcFO7EWSoYhy-15" value="" style="endArrow=none;html=1;entryX=0;entryY=0.5;entryDx=0;entryDy=0;" edge="1" source="WL3TQ0erAcFO7EWSoYhy-25" target="WL3TQ0erAcFO7EWSoYhy-11" parent="1">
          <mxGeometry width="50" height="50" relative="1" as="geometry">
            <mxPoint x="80" y="340" as="sourcePoint"/>
            <mxPoint x="120" y="340" as="targetPoint"/>
            <Array as="points">
              <mxPoint x="120" y="340"/>
            </Array>
          </mxGeometry>
        </mxCell>
        <mxCell id="WL3TQ0erAcFO7EWSoYhy-16" value="" style="shape=mxgraph.bpmn.shape;html=1;verticalLabelPosition=bottom;labelBackgroundColor=#ffffff;verticalAlign=top;align=center;perimeter=ellipsePerimeter;outlineConnect=0;outline=end;symbol=terminate;" vertex="1" parent="1">
          <mxGeometry x="160" y="295" width="10" height="10" as="geometry"/>
        </mxCell>
        <mxCell id="WL3TQ0erAcFO7EWSoYhy-17" value="" style="shape=mxgraph.bpmn.shape;html=1;verticalLabelPosition=bottom;labelBackgroundColor=#ffffff;verticalAlign=top;align=center;perimeter=ellipsePerimeter;outlineConnect=0;outline=end;symbol=terminate;" vertex="1" parent="1">
          <mxGeometry x="160" y="455" width="10" height="10" as="geometry"/>
        </mxCell>
        <mxCell id="WL3TQ0erAcFO7EWSoYhy-18" value="" style="endArrow=none;html=1;" edge="1" parent="1">
          <mxGeometry width="50" height="50" relative="1" as="geometry">
            <mxPoint x="120" y="420" as="sourcePoint"/>
            <mxPoint x="120" y="340" as="targetPoint"/>
          </mxGeometry>
        </mxCell>
        <mxCell id="WL3TQ0erAcFO7EWSoYhy-19" value="" style="endArrow=none;html=1;entryX=0;entryY=0.5;entryDx=0;entryDy=0;" edge="1" target="WL3TQ0erAcFO7EWSoYhy-13" parent="1">
          <mxGeometry width="50" height="50" relative="1" as="geometry">
            <mxPoint x="120" y="420" as="sourcePoint"/>
            <mxPoint x="120" y="340" as="targetPoint"/>
          </mxGeometry>
        </mxCell>
        <mxCell id="WL3TQ0erAcFO7EWSoYhy-20" value="" style="endArrow=none;html=1;entryX=0;entryY=0.5;entryDx=0;entryDy=0;" edge="1" parent="1">
          <mxGeometry width="50" height="50" relative="1" as="geometry">
            <mxPoint x="120" y="460" as="sourcePoint"/>
            <mxPoint x="165" y="460" as="targetPoint"/>
          </mxGeometry>
        </mxCell>
        <mxCell id="WL3TQ0erAcFO7EWSoYhy-21" value="&quot;1&quot;" style="text;html=1;resizable=0;points=[];autosize=1;align=left;verticalAlign=top;spacingTop=-4;" vertex="1" parent="1">
          <mxGeometry x="125" y="440" width="30" height="20" as="geometry"/>
        </mxCell>
        <mxCell id="WL3TQ0erAcFO7EWSoYhy-22" value="" style="endArrow=none;html=1;entryX=0;entryY=0.5;entryDx=0;entryDy=0;" edge="1" parent="1">
          <mxGeometry width="50" height="50" relative="1" as="geometry">
            <mxPoint x="120" y="300" as="sourcePoint"/>
            <mxPoint x="165" y="300" as="targetPoint"/>
          </mxGeometry>
        </mxCell>
        <mxCell id="WL3TQ0erAcFO7EWSoYhy-23" value="&quot;1&quot;" style="text;html=1;resizable=0;points=[];autosize=1;align=left;verticalAlign=top;spacingTop=-4;" vertex="1" parent="1">
          <mxGeometry x="125" y="280" width="30" height="20" as="geometry"/>
        </mxCell>
        <mxCell id="WL3TQ0erAcFO7EWSoYhy-24" value="8" style="text;html=1;resizable=0;points=[];autosize=1;align=left;verticalAlign=top;spacingTop=-4;" vertex="1" parent="1">
          <mxGeometry x="85" y="320" width="20" height="20" as="geometry"/>
        </mxCell>
        <mxCell id="WL3TQ0erAcFO7EWSoYhy-25" value="" style="ellipse;html=1;shape=endState;fillColor=#000000;strokeColor=#ff0000;" vertex="1" parent="1">
          <mxGeometry x="115" y="335" width="10" height="10" as="geometry"/>
        </mxCell>
        <mxCell id="WL3TQ0erAcFO7EWSoYhy-26" value="" style="endArrow=none;html=1;entryX=0;entryY=0.5;entryDx=0;entryDy=0;" edge="1" target="WL3TQ0erAcFO7EWSoYhy-25" parent="1">
          <mxGeometry width="50" height="50" relative="1" as="geometry">
            <mxPoint x="80" y="340" as="sourcePoint"/>
            <mxPoint x="165" y="340" as="targetPoint"/>
            <Array as="points"/>
          </mxGeometry>
        </mxCell>
        <mxCell id="WL3TQ0erAcFO7EWSoYhy-27" value="" style="endArrow=none;html=1;entryX=0.002;entryY=0.558;entryDx=0;entryDy=0;entryPerimeter=0;" edge="1" target="WL3TQ0erAcFO7EWSoYhy-12" parent="1">
          <mxGeometry width="50" height="50" relative="1" as="geometry">
            <mxPoint x="80" y="382" as="sourcePoint"/>
            <mxPoint x="150" y="350" as="targetPoint"/>
          </mxGeometry>
        </mxCell>
        <mxCell id="WL3TQ0erAcFO7EWSoYhy-28" value="c" style="text;html=1;resizable=0;points=[];autosize=1;align=left;verticalAlign=top;spacingTop=-4;" vertex="1" parent="1">
          <mxGeometry x="85" y="360" width="20" height="20" as="geometry"/>
        </mxCell>
        <mxCell id="WL3TQ0erAcFO7EWSoYhy-29" value="" style="endArrow=none;html=1;exitX=1.001;exitY=0.401;exitDx=0;exitDy=0;exitPerimeter=0;" edge="1" source="WL3TQ0erAcFO7EWSoYhy-9" parent="1">
          <mxGeometry width="50" height="50" relative="1" as="geometry">
            <mxPoint x="280" y="400" as="sourcePoint"/>
            <mxPoint x="320" y="360" as="targetPoint"/>
          </mxGeometry>
        </mxCell>
        <mxCell id="WL3TQ0erAcFO7EWSoYhy-30" value="3" style="text;html=1;resizable=0;points=[];autosize=1;align=left;verticalAlign=top;spacingTop=-4;" vertex="1" parent="1">
          <mxGeometry x="280" y="340" width="20" height="20" as="geometry"/>
        </mxCell>
        <mxCell id="WL3TQ0erAcFO7EWSoYhy-31" value="&lt;h1 style=&quot;line-height: 80%&quot;&gt;&amp;nbsp; &amp;nbsp; &amp;nbsp; TT&lt;/h1&gt;&lt;div&gt;&lt;br&gt;&lt;/div&gt;&lt;div&gt;&lt;br&gt;&lt;/div&gt;&lt;div&gt;&lt;br&gt;&lt;/div&gt;&lt;div&gt;&lt;br&gt;&lt;/div&gt;&lt;div&gt;&lt;br&gt;&lt;/div&gt;&lt;div&gt;&lt;br&gt;&lt;/div&gt;&lt;div&gt;&lt;br&gt;&lt;/div&gt;&lt;h1&gt;&amp;nbsp; &amp;nbsp; &amp;nbsp; 1&lt;/h1&gt;&lt;div&gt;&lt;br&gt;&lt;/div&gt;" style="rounded=0;whiteSpace=wrap;html=1;" vertex="1" parent="1">
          <mxGeometry x="170" y="520" width="115" height="200" as="geometry"/>
        </mxCell>
        <mxCell id="WL3TQ0erAcFO7EWSoYhy-32" value="&lt;h1&gt;R&lt;/h1&gt;" style="rounded=0;whiteSpace=wrap;html=1;" vertex="1" parent="1">
          <mxGeometry x="170" y="520" width="40" height="40" as="geometry"/>
        </mxCell>
        <mxCell id="WL3TQ0erAcFO7EWSoYhy-33" value="&lt;h1&gt;J&lt;/h1&gt;" style="rounded=0;whiteSpace=wrap;html=1;" vertex="1" parent="1">
          <mxGeometry x="170" y="560" width="40" height="40" as="geometry"/>
        </mxCell>
        <mxCell id="WL3TQ0erAcFO7EWSoYhy-34" value="&lt;h1&gt;C&lt;/h1&gt;" style="rounded=0;whiteSpace=wrap;html=1;" vertex="1" parent="1">
          <mxGeometry x="170" y="600" width="40" height="40" as="geometry"/>
        </mxCell>
        <mxCell id="WL3TQ0erAcFO7EWSoYhy-35" value="&lt;h1&gt;K&lt;/h1&gt;" style="rounded=0;whiteSpace=wrap;html=1;" vertex="1" parent="1">
          <mxGeometry x="170" y="640" width="40" height="40" as="geometry"/>
        </mxCell>
        <mxCell id="WL3TQ0erAcFO7EWSoYhy-36" value="&lt;h1&gt;S&lt;/h1&gt;" style="rounded=0;whiteSpace=wrap;html=1;" vertex="1" parent="1">
          <mxGeometry x="170" y="680" width="40" height="40" as="geometry"/>
        </mxCell>
        <mxCell id="WL3TQ0erAcFO7EWSoYhy-37" value="" style="endArrow=none;html=1;entryX=0;entryY=0.5;entryDx=0;entryDy=0;" edge="1" source="WL3TQ0erAcFO7EWSoYhy-47" target="WL3TQ0erAcFO7EWSoYhy-33" parent="1">
          <mxGeometry width="50" height="50" relative="1" as="geometry">
            <mxPoint x="85" y="580" as="sourcePoint"/>
            <mxPoint x="125" y="580" as="targetPoint"/>
            <Array as="points">
              <mxPoint x="125" y="580"/>
            </Array>
          </mxGeometry>
        </mxCell>
        <mxCell id="WL3TQ0erAcFO7EWSoYhy-38" value="" style="shape=mxgraph.bpmn.shape;html=1;verticalLabelPosition=bottom;labelBackgroundColor=#ffffff;verticalAlign=top;align=center;perimeter=ellipsePerimeter;outlineConnect=0;outline=end;symbol=terminate;" vertex="1" parent="1">
          <mxGeometry x="165" y="535" width="10" height="10" as="geometry"/>
        </mxCell>
        <mxCell id="WL3TQ0erAcFO7EWSoYhy-39" value="" style="shape=mxgraph.bpmn.shape;html=1;verticalLabelPosition=bottom;labelBackgroundColor=#ffffff;verticalAlign=top;align=center;perimeter=ellipsePerimeter;outlineConnect=0;outline=end;symbol=terminate;" vertex="1" parent="1">
          <mxGeometry x="165" y="695" width="10" height="10" as="geometry"/>
        </mxCell>
        <mxCell id="WL3TQ0erAcFO7EWSoYhy-40" value="" style="endArrow=none;html=1;" edge="1" parent="1">
          <mxGeometry width="50" height="50" relative="1" as="geometry">
            <mxPoint x="125" y="660" as="sourcePoint"/>
            <mxPoint x="125" y="580" as="targetPoint"/>
          </mxGeometry>
        </mxCell>
        <mxCell id="WL3TQ0erAcFO7EWSoYhy-41" value="" style="endArrow=none;html=1;entryX=0;entryY=0.5;entryDx=0;entryDy=0;" edge="1" target="WL3TQ0erAcFO7EWSoYhy-35" parent="1">
          <mxGeometry width="50" height="50" relative="1" as="geometry">
            <mxPoint x="125" y="660" as="sourcePoint"/>
            <mxPoint x="125" y="580" as="targetPoint"/>
          </mxGeometry>
        </mxCell>
        <mxCell id="WL3TQ0erAcFO7EWSoYhy-42" value="" style="endArrow=none;html=1;entryX=0;entryY=0.5;entryDx=0;entryDy=0;" edge="1" parent="1">
          <mxGeometry width="50" height="50" relative="1" as="geometry">
            <mxPoint x="125" y="700" as="sourcePoint"/>
            <mxPoint x="170" y="700" as="targetPoint"/>
          </mxGeometry>
        </mxCell>
        <mxCell id="WL3TQ0erAcFO7EWSoYhy-43" value="&quot;1&quot;" style="text;html=1;resizable=0;points=[];autosize=1;align=left;verticalAlign=top;spacingTop=-4;" vertex="1" parent="1">
          <mxGeometry x="130" y="680" width="30" height="20" as="geometry"/>
        </mxCell>
        <mxCell id="WL3TQ0erAcFO7EWSoYhy-44" value="" style="endArrow=none;html=1;entryX=0;entryY=0.5;entryDx=0;entryDy=0;" edge="1" parent="1">
          <mxGeometry width="50" height="50" relative="1" as="geometry">
            <mxPoint x="125" y="540" as="sourcePoint"/>
            <mxPoint x="170" y="540" as="targetPoint"/>
          </mxGeometry>
        </mxCell>
        <mxCell id="WL3TQ0erAcFO7EWSoYhy-45" value="&quot;1&quot;" style="text;html=1;resizable=0;points=[];autosize=1;align=left;verticalAlign=top;spacingTop=-4;" vertex="1" parent="1">
          <mxGeometry x="130" y="520" width="30" height="20" as="geometry"/>
        </mxCell>
        <mxCell id="WL3TQ0erAcFO7EWSoYhy-46" value="5" style="text;html=1;resizable=0;points=[];autosize=1;align=left;verticalAlign=top;spacingTop=-4;" vertex="1" parent="1">
          <mxGeometry x="90" y="560" width="20" height="20" as="geometry"/>
        </mxCell>
        <mxCell id="WL3TQ0erAcFO7EWSoYhy-47" value="" style="ellipse;html=1;shape=endState;fillColor=#000000;strokeColor=#ff0000;" vertex="1" parent="1">
          <mxGeometry x="120" y="575" width="10" height="10" as="geometry"/>
        </mxCell>
        <mxCell id="WL3TQ0erAcFO7EWSoYhy-48" value="" style="endArrow=none;html=1;entryX=0;entryY=0.5;entryDx=0;entryDy=0;" edge="1" target="WL3TQ0erAcFO7EWSoYhy-47" parent="1">
          <mxGeometry width="50" height="50" relative="1" as="geometry">
            <mxPoint x="85" y="580" as="sourcePoint"/>
            <mxPoint x="170" y="580" as="targetPoint"/>
            <Array as="points"/>
          </mxGeometry>
        </mxCell>
        <mxCell id="WL3TQ0erAcFO7EWSoYhy-49" value="" style="endArrow=none;html=1;entryX=0.002;entryY=0.558;entryDx=0;entryDy=0;entryPerimeter=0;" edge="1" target="WL3TQ0erAcFO7EWSoYhy-34" parent="1">
          <mxGeometry width="50" height="50" relative="1" as="geometry">
            <mxPoint x="85" y="622" as="sourcePoint"/>
            <mxPoint x="155" y="590" as="targetPoint"/>
          </mxGeometry>
        </mxCell>
        <mxCell id="WL3TQ0erAcFO7EWSoYhy-50" value="c" style="text;html=1;resizable=0;points=[];autosize=1;align=left;verticalAlign=top;spacingTop=-4;" vertex="1" parent="1">
          <mxGeometry x="90" y="600" width="20" height="20" as="geometry"/>
        </mxCell>
        <mxCell id="WL3TQ0erAcFO7EWSoYhy-51" value="" style="endArrow=none;html=1;exitX=1.001;exitY=0.401;exitDx=0;exitDy=0;exitPerimeter=0;" edge="1" source="WL3TQ0erAcFO7EWSoYhy-31" parent="1">
          <mxGeometry width="50" height="50" relative="1" as="geometry">
            <mxPoint x="285" y="640" as="sourcePoint"/>
            <mxPoint x="320" y="600" as="targetPoint"/>
          </mxGeometry>
        </mxCell>
        <mxCell id="WL3TQ0erAcFO7EWSoYhy-52" value="7" style="text;html=1;resizable=0;points=[];autosize=1;align=left;verticalAlign=top;spacingTop=-4;" vertex="1" parent="1">
          <mxGeometry x="285" y="580" width="20" height="20" as="geometry"/>
        </mxCell>
        <mxCell id="WL3TQ0erAcFO7EWSoYhy-54" value="&lt;h1&gt;&amp;amp;&lt;/h1&gt;" style="rounded=0;whiteSpace=wrap;html=1;" vertex="1" parent="1">
          <mxGeometry x="360" y="40" width="40" height="80" as="geometry"/>
        </mxCell>
        <mxCell id="WL3TQ0erAcFO7EWSoYhy-55" value="" style="endArrow=none;html=1;entryX=0;entryY=0;entryDx=0;entryDy=0;entryPerimeter=0;" edge="1" parent="1" target="WL3TQ0erAcFO7EWSoYhy-54">
          <mxGeometry width="50" height="50" relative="1" as="geometry">
            <mxPoint x="320" y="40" as="sourcePoint"/>
            <mxPoint x="370" y="10" as="targetPoint"/>
          </mxGeometry>
        </mxCell>
        <mxCell id="WL3TQ0erAcFO7EWSoYhy-56" value="" style="endArrow=none;html=1;entryX=0;entryY=0;entryDx=0;entryDy=0;entryPerimeter=0;" edge="1" parent="1">
          <mxGeometry width="50" height="50" relative="1" as="geometry">
            <mxPoint x="320" y="120" as="sourcePoint"/>
            <mxPoint x="360" y="120" as="targetPoint"/>
          </mxGeometry>
        </mxCell>
        <mxCell id="WL3TQ0erAcFO7EWSoYhy-57" value="2" style="text;html=1;resizable=0;points=[];autosize=1;align=left;verticalAlign=top;spacingTop=-4;" vertex="1" parent="1">
          <mxGeometry x="320" y="100" width="20" height="20" as="geometry"/>
        </mxCell>
        <mxCell id="WL3TQ0erAcFO7EWSoYhy-59" value="" style="endArrow=none;html=1;entryX=0;entryY=0;entryDx=0;entryDy=0;entryPerimeter=0;" edge="1" parent="1">
          <mxGeometry width="50" height="50" relative="1" as="geometry">
            <mxPoint x="400" y="79.5" as="sourcePoint"/>
            <mxPoint x="440" y="79.5" as="targetPoint"/>
          </mxGeometry>
        </mxCell>
        <mxCell id="WL3TQ0erAcFO7EWSoYhy-60" value="8" style="text;html=1;resizable=0;points=[];autosize=1;align=left;verticalAlign=top;spacingTop=-4;" vertex="1" parent="1">
          <mxGeometry x="400" y="60" width="20" height="20" as="geometry"/>
        </mxCell>
        <mxCell id="WL3TQ0erAcFO7EWSoYhy-61" value="&lt;h1&gt;&amp;amp;&lt;/h1&gt;" style="rounded=0;whiteSpace=wrap;html=1;" vertex="1" parent="1">
          <mxGeometry x="360" y="159.5" width="40" height="80" as="geometry"/>
        </mxCell>
        <mxCell id="WL3TQ0erAcFO7EWSoYhy-62" value="" style="endArrow=none;html=1;entryX=0;entryY=0;entryDx=0;entryDy=0;entryPerimeter=0;" edge="1" target="WL3TQ0erAcFO7EWSoYhy-61" parent="1">
          <mxGeometry width="50" height="50" relative="1" as="geometry">
            <mxPoint x="320" y="159.5" as="sourcePoint"/>
            <mxPoint x="370" y="129.5" as="targetPoint"/>
          </mxGeometry>
        </mxCell>
        <mxCell id="WL3TQ0erAcFO7EWSoYhy-63" value="" style="endArrow=none;html=1;entryX=0;entryY=0;entryDx=0;entryDy=0;entryPerimeter=0;" edge="1" parent="1">
          <mxGeometry width="50" height="50" relative="1" as="geometry">
            <mxPoint x="320" y="239.5" as="sourcePoint"/>
            <mxPoint x="360" y="239.5" as="targetPoint"/>
          </mxGeometry>
        </mxCell>
        <mxCell id="WL3TQ0erAcFO7EWSoYhy-64" value="2" style="text;html=1;resizable=0;points=[];autosize=1;align=left;verticalAlign=top;spacingTop=-4;" vertex="1" parent="1">
          <mxGeometry x="320" y="219.5" width="20" height="20" as="geometry"/>
        </mxCell>
        <mxCell id="WL3TQ0erAcFO7EWSoYhy-65" value="" style="endArrow=none;html=1;entryX=0;entryY=0;entryDx=0;entryDy=0;entryPerimeter=0;" edge="1" parent="1">
          <mxGeometry width="50" height="50" relative="1" as="geometry">
            <mxPoint x="400" y="199" as="sourcePoint"/>
            <mxPoint x="440" y="199" as="targetPoint"/>
          </mxGeometry>
        </mxCell>
        <mxCell id="WL3TQ0erAcFO7EWSoYhy-66" value="9" style="text;html=1;resizable=0;points=[];autosize=1;align=left;verticalAlign=top;spacingTop=-4;" vertex="1" parent="1">
          <mxGeometry x="400" y="179.5" width="20" height="20" as="geometry"/>
        </mxCell>
        <mxCell id="WL3TQ0erAcFO7EWSoYhy-67" value="&lt;h1&gt;&amp;amp;&lt;/h1&gt;" style="rounded=0;whiteSpace=wrap;html=1;" vertex="1" parent="1">
          <mxGeometry x="360" y="280" width="40" height="80" as="geometry"/>
        </mxCell>
        <mxCell id="WL3TQ0erAcFO7EWSoYhy-68" value="" style="endArrow=none;html=1;entryX=0;entryY=0;entryDx=0;entryDy=0;entryPerimeter=0;" edge="1" target="WL3TQ0erAcFO7EWSoYhy-67" parent="1">
          <mxGeometry width="50" height="50" relative="1" as="geometry">
            <mxPoint x="320" y="280" as="sourcePoint"/>
            <mxPoint x="370" y="250" as="targetPoint"/>
          </mxGeometry>
        </mxCell>
        <mxCell id="WL3TQ0erAcFO7EWSoYhy-69" value="" style="endArrow=none;html=1;entryX=0;entryY=0;entryDx=0;entryDy=0;entryPerimeter=0;" edge="1" parent="1">
          <mxGeometry width="50" height="50" relative="1" as="geometry">
            <mxPoint x="320" y="360" as="sourcePoint"/>
            <mxPoint x="360" y="360" as="targetPoint"/>
          </mxGeometry>
        </mxCell>
        <mxCell id="WL3TQ0erAcFO7EWSoYhy-70" value="2" style="text;html=1;resizable=0;points=[];autosize=1;align=left;verticalAlign=top;spacingTop=-4;" vertex="1" parent="1">
          <mxGeometry x="320" y="340" width="20" height="20" as="geometry"/>
        </mxCell>
        <mxCell id="WL3TQ0erAcFO7EWSoYhy-71" value="" style="endArrow=none;html=1;entryX=0;entryY=0;entryDx=0;entryDy=0;entryPerimeter=0;" edge="1" parent="1">
          <mxGeometry width="50" height="50" relative="1" as="geometry">
            <mxPoint x="400" y="319.5" as="sourcePoint"/>
            <mxPoint x="440" y="319.5" as="targetPoint"/>
          </mxGeometry>
        </mxCell>
        <mxCell id="WL3TQ0erAcFO7EWSoYhy-72" value="4" style="text;html=1;resizable=0;points=[];autosize=1;align=left;verticalAlign=top;spacingTop=-4;" vertex="1" parent="1">
          <mxGeometry x="400" y="300" width="20" height="20" as="geometry"/>
        </mxCell>
        <mxCell id="WL3TQ0erAcFO7EWSoYhy-73" value="3" style="text;html=1;resizable=0;points=[];autosize=1;align=left;verticalAlign=top;spacingTop=-4;" vertex="1" parent="1">
          <mxGeometry x="320" y="140" width="20" height="20" as="geometry"/>
        </mxCell>
        <mxCell id="WL3TQ0erAcFO7EWSoYhy-74" value="7" style="text;html=1;resizable=0;points=[];autosize=1;align=left;verticalAlign=top;spacingTop=-4;" vertex="1" parent="1">
          <mxGeometry x="320" y="260" width="20" height="20" as="geometry"/>
        </mxCell>
        <mxCell id="WL3TQ0erAcFO7EWSoYhy-75" value="&lt;h1&gt;1&lt;/h1&gt;" style="rounded=0;whiteSpace=wrap;html=1;" vertex="1" parent="1">
          <mxGeometry x="360" y="399.5" width="40" height="80" as="geometry"/>
        </mxCell>
        <mxCell id="WL3TQ0erAcFO7EWSoYhy-76" value="" style="endArrow=none;html=1;entryX=0;entryY=0;entryDx=0;entryDy=0;entryPerimeter=0;" edge="1" target="WL3TQ0erAcFO7EWSoYhy-75" parent="1">
          <mxGeometry width="50" height="50" relative="1" as="geometry">
            <mxPoint x="320" y="399.5" as="sourcePoint"/>
            <mxPoint x="370" y="369.5" as="targetPoint"/>
          </mxGeometry>
        </mxCell>
        <mxCell id="WL3TQ0erAcFO7EWSoYhy-77" value="" style="endArrow=none;html=1;entryX=0;entryY=0;entryDx=0;entryDy=0;entryPerimeter=0;" edge="1" parent="1">
          <mxGeometry width="50" height="50" relative="1" as="geometry">
            <mxPoint x="320" y="479.5" as="sourcePoint"/>
            <mxPoint x="360" y="479.5" as="targetPoint"/>
          </mxGeometry>
        </mxCell>
        <mxCell id="WL3TQ0erAcFO7EWSoYhy-78" value="9" style="text;html=1;resizable=0;points=[];autosize=1;align=left;verticalAlign=top;spacingTop=-4;" vertex="1" parent="1">
          <mxGeometry x="320" y="459.5" width="20" height="20" as="geometry"/>
        </mxCell>
        <mxCell id="WL3TQ0erAcFO7EWSoYhy-79" value="" style="endArrow=none;html=1;entryX=0;entryY=0;entryDx=0;entryDy=0;entryPerimeter=0;" edge="1" parent="1">
          <mxGeometry width="50" height="50" relative="1" as="geometry">
            <mxPoint x="400" y="439" as="sourcePoint"/>
            <mxPoint x="440" y="439" as="targetPoint"/>
          </mxGeometry>
        </mxCell>
        <mxCell id="WL3TQ0erAcFO7EWSoYhy-80" value="5" style="text;html=1;resizable=0;points=[];autosize=1;align=left;verticalAlign=top;spacingTop=-4;" vertex="1" parent="1">
          <mxGeometry x="400" y="419.5" width="20" height="20" as="geometry"/>
        </mxCell>
        <mxCell id="WL3TQ0erAcFO7EWSoYhy-81" value="4" style="text;html=1;resizable=0;points=[];autosize=1;align=left;verticalAlign=top;spacingTop=-4;" vertex="1" parent="1">
          <mxGeometry x="320" y="380" width="20" height="20" as="geometry"/>
        </mxCell>
        <mxCell id="WL3TQ0erAcFO7EWSoYhy-82" value="&lt;h1&gt;1&lt;/h1&gt;" style="rounded=0;whiteSpace=wrap;html=1;" vertex="1" parent="1">
          <mxGeometry x="360" y="519" width="40" height="80" as="geometry"/>
        </mxCell>
        <mxCell id="WL3TQ0erAcFO7EWSoYhy-83" value="" style="endArrow=none;html=1;entryX=0;entryY=0;entryDx=0;entryDy=0;entryPerimeter=0;" edge="1" target="WL3TQ0erAcFO7EWSoYhy-82" parent="1">
          <mxGeometry width="50" height="50" relative="1" as="geometry">
            <mxPoint x="320" y="519.0000000000001" as="sourcePoint"/>
            <mxPoint x="370" y="489" as="targetPoint"/>
          </mxGeometry>
        </mxCell>
        <mxCell id="WL3TQ0erAcFO7EWSoYhy-84" value="" style="endArrow=none;html=1;entryX=0;entryY=0;entryDx=0;entryDy=0;entryPerimeter=0;" edge="1" parent="1">
          <mxGeometry width="50" height="50" relative="1" as="geometry">
            <mxPoint x="320" y="599.0000000000001" as="sourcePoint"/>
            <mxPoint x="360" y="599.0000000000001" as="targetPoint"/>
          </mxGeometry>
        </mxCell>
        <mxCell id="WL3TQ0erAcFO7EWSoYhy-85" value="4" style="text;html=1;resizable=0;points=[];autosize=1;align=left;verticalAlign=top;spacingTop=-4;" vertex="1" parent="1">
          <mxGeometry x="320" y="579" width="20" height="20" as="geometry"/>
        </mxCell>
        <mxCell id="WL3TQ0erAcFO7EWSoYhy-86" value="" style="endArrow=none;html=1;entryX=0;entryY=0;entryDx=0;entryDy=0;entryPerimeter=0;" edge="1" parent="1">
          <mxGeometry width="50" height="50" relative="1" as="geometry">
            <mxPoint x="400" y="558.5" as="sourcePoint"/>
            <mxPoint x="440" y="558.5" as="targetPoint"/>
          </mxGeometry>
        </mxCell>
        <mxCell id="WL3TQ0erAcFO7EWSoYhy-87" value="6" style="text;html=1;resizable=0;points=[];autosize=1;align=left;verticalAlign=top;spacingTop=-4;" vertex="1" parent="1">
          <mxGeometry x="420" y="539" width="20" height="20" as="geometry"/>
        </mxCell>
        <mxCell id="WL3TQ0erAcFO7EWSoYhy-88" value="4" style="text;html=1;resizable=0;points=[];autosize=1;align=left;verticalAlign=top;spacingTop=-4;" vertex="1" parent="1">
          <mxGeometry x="320" y="499.5" width="20" height="20" as="geometry"/>
        </mxCell>
        <mxCell id="WL3TQ0erAcFO7EWSoYhy-89" value="" style="shape=mxgraph.bpmn.shape;html=1;verticalLabelPosition=bottom;labelBackgroundColor=#ffffff;verticalAlign=top;align=center;perimeter=ellipsePerimeter;outlineConnect=0;outline=end;symbol=terminate;" vertex="1" parent="1">
          <mxGeometry x="395" y="554" width="10" height="10" as="geometry"/>
        </mxCell>
        <mxCell id="WL3TQ0erAcFO7EWSoYhy-90" value="Trigger" style="text;html=1;resizable=0;points=[];autosize=1;align=left;verticalAlign=top;spacingTop=-4;" vertex="1" parent="1">
          <mxGeometry x="290" y="-20.5" width="50" height="20" as="geometry"/>
        </mxCell>
      </root>
    </mxGraphModel>
  </diagram>
</mxfile>
